<svg xmlns="http://www.w3.org/2000/svg" viewBox="0 0 24.08 40"><path d="M.08 6.61v.78C.03 7.27 0 7.14 0 7s.03-.27.08-.39zm2-.61h20v2h-20zm-2 26.61v.78C.03 33.27 0 33.14 0 33s.03-.27.08-.39z"/><path d="M22.58 0h-21C.75 0 .08.67.08 1.5v37c0 .83.67 1.5 1.5 1.5h21c.83 0 1.5-.67 1.5-1.5v-37c0-.83-.67-1.5-1.5-1.5zm-.5 38h-20V2h20v36z"/><path d="M16.08 4c0 .55-.45 1-1 1h-6c-.55 0-1-.45-1-1s.45-1 1-1h6c.55 0 1 .45 1 1zm-1.77 30H9.85a2.984 2.984 0 0 0 0 4h4.46a2.984 2.984 0 0 0 0-4zm-2.23 3c-.55 0-1-.45-1-1s.45-1 1-1 1 .45 1 1-.45 1-1 1zm-10-5h20v2h-20z"/></svg>